<svg width="20" height="13" viewBox="0 0 20 13" fill="none" xmlns="http://www.w3.org/2000/svg">
<g id="4.7">
<path d="M6.54175 11.996V9.21202H0.813751V8.38002L6.62175 0.796021H7.93375V7.96402H9.51775V9.21202H7.93375V11.996H6.54175ZM2.63775 7.96402H6.54175V2.76402L2.63775 7.96402Z" fill="#284855"/>
<path d="M12.112 12.204C11.8027 12.204 11.5413 12.0947 11.328 11.876C11.1147 11.6574 11.008 11.404 11.008 11.116C11.008 10.828 11.1147 10.572 11.328 10.348C11.5413 10.124 11.8027 10.012 12.112 10.012C12.4267 10.012 12.6907 10.124 12.904 10.348C13.1227 10.572 13.232 10.828 13.232 11.116C13.232 11.404 13.1227 11.6574 12.904 11.876C12.6907 12.0947 12.4267 12.204 12.112 12.204Z" fill="#284855"/>
<path d="M15.12 11.996C15.1307 10.7747 15.2453 9.61469 15.464 8.51602C15.6827 7.41202 16.032 6.33469 16.512 5.28402C16.9973 4.22802 17.6427 3.16402 18.448 2.09202H12.88V0.796021H20V2.06002C19.296 2.87069 18.72 3.72135 18.272 4.61202C17.824 5.49735 17.4747 6.38269 17.224 7.26802C16.9733 8.14802 16.7973 8.99335 16.696 9.80402C16.6 10.6094 16.5493 11.34 16.544 11.996H15.12Z" fill="#284855"/>
</g>
</svg>
