<svg width="77" height="75" viewBox="0 0 77 75" fill="none" xmlns="http://www.w3.org/2000/svg">
<g id="iwwa:co2">
<path id="Vector" d="M11.9428 67.8309L16.5384 72.4265M16.5384 72.4265L21.134 67.8309M16.5384 72.4265V54.0441" stroke="#FFBB56" stroke-width="3" stroke-linecap="round" stroke-linejoin="round"/>
<path id="Vector_2" d="M34.0016 67.8309L38.5972 72.4265M38.5972 72.4265L43.1928 67.8309M38.5972 72.4265V54.0441" stroke="#FFBB56" stroke-width="3" stroke-linecap="round" stroke-linejoin="round"/>
<path id="Vector_3" d="M56.0605 67.8309L60.656 72.4265M60.656 72.4265L65.2516 67.8309M60.656 72.4265V54.0441" stroke="#FFBB56" stroke-width="3" stroke-linecap="round" stroke-linejoin="round"/>
<path id="Vector_4" d="M27.9341 26.7206H27.9355C28.9779 26.7206 29.8399 25.8587 29.8399 24.8162V24.2647C29.8399 22.9134 28.7353 21.8088 27.384 21.8088H20.7663C19.415 21.8088 18.3105 22.9134 18.3105 24.2647V33.0882C18.3105 34.4396 19.415 35.5441 20.7663 35.5441H27.384C28.7353 35.5441 29.8399 34.4396 29.8399 33.0882V32.5368C29.8399 31.4943 28.9779 30.6324 27.9355 30.6324C27.1647 30.6324 26.4993 31.0849 26.2005 31.7353H22.1193V25.6177H26.203C26.3449 25.9177 26.5624 26.177 26.8354 26.3693C27.1571 26.5958 27.5406 26.7185 27.9341 26.7206ZM42.8252 21.8088H36.2075C34.8562 21.8088 33.7516 22.9134 33.7516 24.2647V33.0882C33.7516 34.4396 34.8562 35.5441 36.2075 35.5441H42.8252C44.1765 35.5441 45.281 34.4396 45.281 33.0882V24.2647C45.281 22.9134 44.1765 21.8088 42.8252 21.8088ZM41.4722 31.7353H37.5605V25.6177H41.4722V31.7353ZM51.0972 32.2353H55.8105V33.9412H51.6487C50.2974 33.9412 49.1928 35.0458 49.1928 36.3971V39.7059C49.1928 41.0572 50.2974 42.1618 51.6487 42.1618H57.7149C58.7574 42.1618 59.6193 41.2999 59.6193 40.2574C59.6193 39.2149 58.7574 38.353 57.7149 38.353H53.0016V36.6471H57.1634C58.5147 36.6471 59.6193 35.5425 59.6193 34.1912V30.8824C59.6193 29.5311 58.5147 28.4265 57.1634 28.4265H51.0972C50.0547 28.4265 49.1928 29.2884 49.1928 30.3309C49.1928 31.3734 50.0547 32.2353 51.0972 32.2353Z" fill="#FFBB56" stroke="#FFBB56" stroke-width="0.5"/>
<path id="Vector_5" d="M6.21639 22.5961C6.21628 23.8652 6.32943 25.1314 6.55429 26.3795C3.22192 28.8538 1.26633 32.7276 1.26633 36.9509L1.26633 36.9518C1.27036 40.4384 2.6482 43.782 5.09908 46.2486C7.55014 48.7155 10.8743 50.1038 14.3424 50.1072H14.3432C16.4142 50.1072 18.2036 50.1504 20.1416 50.198C22.7854 50.2704 25.4301 50.3091 28.075 50.3139C28.2296 50.3591 28.3902 50.3823 28.5519 50.3823H28.5523C31.5245 50.3823 38.1671 50.231 45.1829 50.0657M6.21639 22.5961L6.96639 22.5962M6.21639 22.5961L6.96639 22.5962M6.21639 22.5961C6.21639 10.9448 15.6339 1.45587 27.2249 1.45587H27.2256C31.0203 1.45963 34.7431 2.49553 38.0004 4.45361C40.978 6.24359 43.4653 8.74326 45.2469 11.7255C46.3007 10.7919 47.5 10.0351 48.799 9.48662C50.4022 8.80964 52.1244 8.46382 53.8632 8.46984C55.8501 8.47168 57.8103 8.92863 59.5954 9.80587C61.3807 10.6833 62.9438 11.958 64.1665 13.533C65.3891 15.1081 66.2394 16.9422 66.6531 18.8964C67.018 20.6201 67.0349 22.3974 66.7057 24.1235C69.1702 24.9703 71.3325 26.5402 72.9098 28.6374C74.6293 30.9238 75.5598 33.7121 75.5604 36.5785V36.5786C75.5604 43.8303 69.6999 49.7391 62.4836 49.7391C59.3262 49.7391 52.1443 49.9042 45.1829 50.0657M6.96639 22.5962C6.96627 23.9782 7.10534 25.3566 7.38147 26.7103L44.6869 12.2519C42.9629 9.31249 40.5324 6.8508 37.614 5.0964C34.4729 3.20821 30.8834 2.2095 27.2249 2.20587C16.0528 2.20587 6.96639 11.3544 6.96639 22.5962ZM45.1829 50.0657L45.1655 49.3159M45.1829 50.0657C45.183 50.0657 45.1831 50.0657 45.1832 50.0657L45.1655 49.3159M45.1655 49.3159C38.1442 49.4813 31.5133 49.6323 28.5523 49.6323L65.8268 24.6336C68.4123 25.368 70.6889 26.9321 72.3104 29.0882C73.932 31.2443 74.8098 33.8744 74.8104 36.5786C74.8104 43.4209 69.2809 48.9891 62.4836 48.9891C59.315 48.9891 52.1211 49.1545 45.1655 49.3159ZM10.1205 26.7552L10.1204 26.7545C9.79512 25.3993 9.62943 23.9998 9.62943 22.5962C9.62943 12.8232 17.5275 4.88178 27.2245 4.88156C30.6189 4.8854 33.9404 5.87534 36.7903 7.73306C39.6395 9.5903 41.8964 12.2361 43.2897 15.3536C43.4082 15.6243 43.5949 15.8598 43.8321 16.0368C44.0703 16.2146 44.351 16.3269 44.6464 16.3621C44.9418 16.3974 45.2411 16.3543 45.5145 16.2373C45.7872 16.1206 46.0244 15.9346 46.2029 15.6982C47.1019 14.5123 48.261 13.5524 49.5893 12.8932C50.9175 12.234 52.379 11.8933 53.8594 11.8976L53.8609 11.8976C55.398 11.8989 56.9128 12.2691 58.2798 12.9776C59.6468 13.6862 60.8268 14.7129 61.7216 15.973C62.6164 17.2331 63.2001 18.6902 63.424 20.2234C63.6477 21.7564 63.5053 23.321 63.0084 24.7873C62.9296 25.0182 62.901 25.2633 62.9244 25.5062C62.9479 25.7495 63.0231 25.9852 63.1453 26.1972C63.2674 26.4092 63.4336 26.5926 63.633 26.7349C63.8321 26.877 64.0596 26.9745 64.3 27.0206C66.5061 27.4455 68.4971 28.6316 69.9295 30.3759C71.3618 32.1202 72.1458 34.3134 72.1453 36.5779C72.1428 39.1604 71.1226 41.6354 69.3102 43.4602C67.4979 45.2848 65.0417 46.3103 62.4806 46.3134C59.2779 46.3134 52.0624 46.4792 45.1009 46.6404C38.5483 46.7915 31.7941 46.9462 28.7564 46.9543C28.6027 46.9097 28.4433 46.8867 28.2827 46.8863H28.2811C25.015 46.8863 22.5904 46.8289 20.3573 46.776L20.2239 46.7728C18.2704 46.7252 16.4498 46.6816 14.3419 46.6816C11.7814 46.679 9.32545 45.6542 7.5132 43.8303C5.7008 42.0063 4.68034 39.532 4.67731 36.9501L4.67731 36.948C4.67064 35.271 5.09756 33.6213 5.91576 32.1613C6.73395 30.7012 7.91511 29.4811 9.34268 28.6205L9.34458 28.6194C9.65515 28.4309 9.8971 28.1483 10.0363 27.8133C10.1754 27.4784 10.2048 27.1078 10.1205 26.7552Z" fill="#FFBB56" stroke="#FFBB56" stroke-width="1.5"/>
</g>
</svg>
