<svg width="115" height="50" viewBox="0 0 115 50" fill="none" xmlns="http://www.w3.org/2000/svg">
<path id="Path 0" fill-rule="evenodd" clip-rule="evenodd" d="M43.2076 0.00280352C43.4431 -0.0266239 43.8551 0.179368 44.0905 0.444215C44.473 0.856199 44.4436 1.03276 43.6491 2.06272C43.1488 2.6807 41.648 4.5052 40.2649 6.06485C38.8818 7.65393 36.3805 10.1258 34.6737 11.5972C32.9669 13.0686 30.8187 14.8637 29.877 15.5993C28.6705 16.541 27.6994 17.6593 26.6106 19.4249C25.7572 20.808 24.5801 22.8679 24.021 23.9862C23.4324 25.1044 21.8139 28.6357 20.4014 31.7844C18.9889 34.9332 17.4587 38.641 17.0172 40.0241C16.5464 41.4072 15.9873 43.6437 15.3987 47.4398L16.1344 47.9989C16.5464 48.3226 17.3115 48.5875 17.8412 48.5581C18.5475 48.5581 19.136 48.2049 20.2837 47.175C21.1077 46.3804 22.7556 44.6442 23.9033 43.2611C25.0509 41.878 27.67 38.3173 29.7299 35.3157C31.7604 32.3141 34.6443 27.8117 36.1451 25.3104C37.6459 22.8091 39.6764 19.572 40.7063 18.1007C41.7069 16.6293 43.0605 14.5105 43.7079 13.3923C44.3553 12.274 45.091 11.1852 45.297 10.9792C45.5618 10.7732 45.8855 10.7144 46.1504 10.891C46.5329 11.0969 46.4152 11.4795 45.5324 13.4511C44.9439 14.7165 44.3553 16.2173 44.0022 17.8064L45.297 17.6004C46.0033 17.4827 47.5335 17.0119 48.6517 16.541C49.77 16.0702 51.3296 15.5405 52.1242 15.3639C53.0658 15.1285 53.7427 15.0991 54.2429 15.3051C54.8021 15.5405 54.9786 15.8053 54.9786 16.4822C54.9786 17.159 54.5078 17.8947 52.8304 19.7192C51.6827 21.0434 49.564 23.5153 48.1515 25.2515C46.7389 26.9878 45.6501 28.4886 45.709 28.6357C45.7973 28.7534 46.4741 28.8417 47.2392 28.8417C48.0337 28.8417 49.3874 28.6063 50.2702 28.312C51.1531 27.9883 52.3596 27.6646 52.9187 27.5469C53.6838 27.3997 54.1252 27.488 54.6549 27.8706C55.1846 28.2531 55.3317 28.6651 55.3317 29.4302C55.3023 29.9894 54.9492 31.4607 54.5372 32.6672C54.1252 33.8738 53.8015 34.9037 53.8015 34.9626C53.8015 34.992 53.9192 35.0214 54.0958 35.0214C54.2724 35.0214 55.5377 34.1092 56.9503 32.9909C58.3922 31.9021 60.7464 29.7539 62.1883 28.2237C63.6597 26.6935 65.6019 24.3393 66.5142 22.9562C67.4264 21.5731 68.5741 20.0135 69.0744 19.4838C69.5746 18.9835 70.1926 18.5421 70.428 18.5421C70.6929 18.5421 70.8694 18.8069 70.8694 19.2189C70.8694 19.572 70.3103 20.6609 69.6335 21.632C68.9566 22.6031 67.7795 24.0744 67.0439 24.869C66.0728 25.8989 65.4842 26.8406 65.1605 27.9589C64.8662 28.9005 64.778 29.7834 64.8957 30.1071C65.0134 30.4013 65.5431 30.7545 66.0139 30.931C66.4847 31.0782 67.2499 31.1959 67.7207 31.1959C68.1621 31.1959 69.2215 30.8133 70.0749 30.3719C70.8989 29.9305 72.3997 28.9594 73.3708 28.2531C74.3419 27.5469 75.9898 26.0755 77.0492 24.9867C78.3734 23.633 79.168 22.5148 79.6682 21.3083C80.0508 20.3666 81.1985 17.8064 82.2284 15.6876C83.6704 12.7155 84.2589 11.7443 84.7886 11.5972C85.1417 11.5089 85.5537 11.5678 85.7303 11.7443C85.9265 11.9601 85.8872 12.48 85.6126 13.304C85.4066 14.0103 84.4943 16.0408 83.6115 17.8064C82.6993 19.572 81.6104 21.5143 81.1396 22.0734C80.6982 22.6325 80.1096 23.6919 79.8742 24.4276C79.6094 25.1633 79.2562 26.5169 79.1091 27.4586C78.8737 28.724 78.9031 29.2537 79.1974 29.5774C79.374 29.8422 79.7859 30.0482 80.0802 30.0188C80.3451 30.0188 81.375 29.1948 82.3756 28.1943C83.3761 27.1643 84.9946 25.281 86.0246 23.9862C87.0251 22.6914 88.9084 19.984 90.2033 17.9535C91.5275 15.923 92.7929 14.1868 93.0577 14.0691C93.352 13.922 93.5874 13.9808 93.6757 14.2751C93.764 14.5105 93.4108 15.3345 92.8811 16.129C92.3809 16.8941 91.6452 18.189 91.2626 18.9835C90.9095 19.8075 90.321 21.5143 89.9973 22.8091C89.6736 24.1039 89.4087 25.6929 89.4087 26.3404C89.4087 26.9878 89.6736 28.0471 89.9384 28.6945C90.2327 29.3419 90.8801 30.1659 91.3509 30.5485C91.8218 30.9016 92.6163 31.2842 93.0871 31.3724C93.558 31.4607 94.3231 31.4019 94.7939 31.2253C95.3236 30.9899 95.5885 30.6956 95.5885 30.2542C95.5885 29.8716 96.0005 28.9888 96.5007 28.2531C97.0304 27.5174 98.4429 25.8401 99.6789 24.4864C100.915 23.1033 102.445 21.7791 103.092 21.4554C103.74 21.1611 104.534 20.8963 104.858 20.8963C105.182 20.8668 105.623 21.0728 105.829 21.3377C106.123 21.6908 106.123 21.9557 105.829 22.7208C105.623 23.2505 104.888 24.4864 104.211 25.4575C103.21 26.8995 103.034 27.3115 103.328 27.6646C103.534 27.9 103.946 28.6063 104.27 29.2242C104.593 29.8128 105.182 30.4602 105.594 30.6368C106.153 30.8722 106.683 30.8427 107.801 30.4896C108.625 30.2248 110.332 29.4302 111.626 28.6945C112.921 27.9589 114.157 27.3703 114.363 27.3703C114.54 27.3703 114.716 27.5763 114.716 27.8117C114.716 28.0471 114.216 28.5768 113.627 28.9594C113.01 29.3419 111.509 30.1365 110.302 30.7545C108.625 31.6079 107.713 31.9021 106.565 31.9021C105.27 31.9316 104.917 31.8139 104.152 31.0487C103.652 30.5485 103.063 29.7834 102.857 29.3419C102.68 28.9005 102.386 28.518 102.21 28.5474C102.033 28.5474 101.062 29.136 100.003 29.8422C98.9432 30.5779 97.4424 31.4607 96.6184 31.8139C95.7356 32.2258 94.5585 32.4907 93.6757 32.4907C92.7046 32.4907 91.8512 32.2847 91.1744 31.9021C90.6152 31.5784 89.8501 30.8427 89.4676 30.2836C89.085 29.7245 88.6436 28.7534 88.467 28.106C88.3199 27.4586 88.2316 26.1049 88.3493 25.1044C88.4376 24.0744 88.4376 23.2505 88.3199 23.2505C88.1728 23.2799 87.4959 24.0744 86.7602 25.0455C86.0246 26.0166 84.5826 27.6646 83.5232 28.724C82.4638 29.7834 81.4044 30.7545 81.169 30.9016C80.9336 31.0487 80.4039 31.1959 79.9919 31.1959C79.5799 31.2253 78.9325 30.9605 78.5206 30.6368C77.8437 30.1071 77.7849 29.9011 77.932 26.1932L76.9903 26.9583C76.4606 27.3703 75.2247 28.312 74.2536 29.0771C73.2825 29.8128 71.664 30.8722 70.6634 31.4019C69.3981 32.0787 68.3975 32.373 67.5736 32.373C66.8673 32.373 65.7491 32.1081 65.0722 31.7844C63.9246 31.2547 63.7774 31.0782 63.4537 28.6945L61.6292 30.4896C60.6581 31.4902 58.8042 33.1087 57.5682 34.1092C56.3029 35.0803 54.9786 35.9925 54.6255 36.0808C54.2429 36.1691 53.6838 36.1985 53.3601 36.1397C53.0364 36.0808 52.7421 35.7866 52.6833 35.4629C52.6244 35.1392 52.9187 33.7855 53.3307 32.4318C53.7427 31.1076 54.0958 29.6951 54.0958 29.2831C54.0958 28.8711 53.9781 28.5474 53.8015 28.5474C53.625 28.5474 52.4184 28.9005 51.0942 29.3125C49.2991 29.8716 48.2103 30.0482 46.9744 29.9894C46.0327 29.9305 45.091 29.6657 44.7967 29.4302C44.5025 29.136 44.3847 28.724 44.5025 28.2531C44.5907 27.8412 45.6796 26.2521 46.9155 24.7218C48.1809 23.1916 50.1231 20.9257 51.2413 19.7192C52.3596 18.5127 53.3895 17.2767 53.5367 16.9824C53.7427 16.5704 53.6838 16.4822 53.0658 16.4822C52.6539 16.4822 51.0353 16.9824 49.4757 17.571C47.5041 18.3067 46.0915 18.6598 44.9733 18.6598C43.5608 18.6892 43.3548 18.6009 43.0311 17.9535C42.678 17.2178 42.6485 17.2473 41.236 19.4249C40.412 20.6314 38.5287 23.6919 37.0279 26.1932C35.5271 28.6945 32.5549 33.3441 30.4067 36.4928C28.2291 39.6415 25.2569 43.6142 23.7267 45.2916C22.2259 46.9984 20.4602 48.7346 19.8128 49.2055C19.136 49.6469 18.2532 50 17.7529 50C17.2527 50 16.4875 49.7646 15.9873 49.4703C15.487 49.176 14.8985 48.6169 14.663 48.1755C14.2805 47.5281 14.2805 47.0573 14.5748 44.9679C14.7808 43.6143 15.3399 41.3189 15.8107 39.877C16.2816 38.435 17.5764 35.1686 18.6652 32.6672C19.7834 30.1659 21.5785 26.3109 22.6379 24.1333C23.7267 21.9557 24.5507 20.1312 24.4918 20.1017C24.433 20.0429 22.8144 21.1317 20.9311 22.4854C19.0183 23.839 16.1344 25.8107 14.5159 26.87C12.8974 27.9294 10.2784 29.4597 8.71871 30.2836C5.98196 31.7256 5.71711 31.7844 3.56891 31.7844C2.30353 31.7844 0.979293 31.6667 0.596736 31.549C0.21418 31.4313 -0.0506673 31.1664 0.00818756 30.9016C0.0964698 30.5485 0.596737 30.4896 5.39341 30.6662L8.04188 29.2831C9.51325 28.5474 12.7503 26.5463 15.2516 24.869C17.7529 23.1916 21.1371 20.8374 22.7556 19.6309C24.3741 18.4244 26.1692 16.9824 26.7283 16.4233C27.2874 15.8642 28.7588 14.0397 29.9653 12.3623C31.1718 10.7144 33.9674 7.5068 36.1451 5.29974C38.6758 2.73955 40.5886 1.03276 41.442 0.650207C42.1777 0.297078 42.9722 0.00280352 43.2076 0.00280352ZM32.4666 10.9792C31.9664 11.5972 31.6427 12.1563 31.731 12.2152C31.8192 12.3035 33.0846 11.3324 34.5266 10.067C35.9685 8.8016 38.2638 6.47684 39.5881 4.91718C41.1772 3.03383 41.8246 2.06272 41.5009 2.06272C41.236 2.06272 39.2938 3.82837 37.175 5.97657C35.0563 8.09535 32.9375 10.3613 32.4666 10.9792ZM98.3841 27.7529C97.7367 28.518 97.2953 29.2537 97.4424 29.3714C97.5601 29.4891 98.1192 29.3419 98.6784 29.0771C99.2375 28.7828 100.267 28.0471 100.915 27.4586C101.592 26.8406 102.622 25.6047 103.24 24.7218C103.828 23.839 104.417 22.9268 104.505 22.7502C104.642 22.4952 104.505 22.3676 104.093 22.3676C103.71 22.3676 102.71 23.1328 101.503 24.3687C100.444 25.4575 99.0315 26.9878 98.3841 27.7529Z" fill="#284855"/>
</svg>
