<svg width="40" height="80" viewBox="0 0 40 80" fill="none" xmlns="http://www.w3.org/2000/svg">
<g id="Vector">
<path d="M4.29825e-06 20C5.2639e-06 8.9543 8.95431 7.8281e-07 20 1.74846e-06C31.0457 2.7141e-06 40 8.95431 40 20C40 31.0457 31.0457 40 20 40C8.95431 40 3.33261e-06 31.0457 4.29825e-06 20Z" fill="#FFFEFC"/>
<path d="M40 3.49691e-06L20.6 20.6L4.29825e-06 40L40 40L40 3.49691e-06Z" fill="#97A675"/>
<path d="M4.29825e-06 40L19.4 19.4L40 3.49691e-06L0 0L4.29825e-06 40Z" fill="#81B0B2"/>
<path d="M40 3.49691e-06C17.9086 1.56562e-06 6.22954e-06 17.9086 4.29825e-06 40C22.0914 40 40 22.0914 40 3.49691e-06Z" fill="#FFFEFC"/>
<path d="M4.29825e-06 40L40 40L40 80H4.29825e-06V40Z" fill="#FFFEFC"/>
<path d="M23.3606 45.8663C21.8111 43.3779 18.1889 43.3779 16.6394 45.8663C15.7439 47.3045 14.0324 48.0134 12.3822 47.6297C9.52709 46.9657 6.96573 49.5271 7.62966 52.3822C8.01339 54.0324 7.30448 55.7439 5.86627 56.6394C3.37791 58.1889 3.37792 61.8111 5.86628 63.3606C7.30449 64.2561 8.01339 65.9676 7.62966 67.6178C6.96574 70.4729 9.52709 73.0343 12.3822 72.3703C14.0324 71.9866 15.7439 72.6955 16.6394 74.1337C18.1889 76.6221 21.8111 76.6221 23.3606 74.1337C24.2561 72.6955 25.9676 71.9866 27.6178 72.3703C30.4729 73.0343 33.0343 70.4729 32.3703 67.6178C31.9866 65.9676 32.6955 64.2561 34.1337 63.3606C36.6221 61.8111 36.6221 58.1889 34.1337 56.6394C32.6955 55.7439 31.9866 54.0324 32.3703 52.3822C33.0343 49.5271 30.4729 46.9657 27.6178 47.6297C25.9676 48.0134 24.2561 47.3045 23.3606 45.8663Z" fill="#81B0B2"/>
</g>
</svg>
