<svg width="40" height="80" viewBox="0 0 40 80" fill="none" xmlns="http://www.w3.org/2000/svg">
<g id="Vector">
<path d="M40 20C40 8.9543 31.0457 7.8281e-07 20 1.74846e-06C8.9543 2.7141e-06 7.8281e-07 8.95431 1.74846e-06 20C2.7141e-06 31.0457 8.95431 40 20 40C31.0457 40 40 31.0457 40 20Z" fill="#FFFEFC"/>
<path d="M0 3.49691e-06L19.4 20.6L40 40L3.49691e-06 40L0 3.49691e-06Z" fill="#5E7680"/>
<path d="M40 40L20.6 19.4L0 3.49691e-06L40 0L40 40Z" fill="#D6EAD4"/>
<path d="M0 3.49691e-06C22.0914 1.56562e-06 40 17.9086 40 40C17.9086 40 1.93129e-06 22.0914 0 3.49691e-06Z" fill="#FFFEFC"/>
<path d="M3.49691e-06 40L40 40V80H0L3.49691e-06 40Z" fill="#97A675"/>
<path d="M20 40L27.7782 52.2218L40 60L27.7782 67.7782L20 80L12.2218 67.7782L1.74846e-06 60L12.2218 52.2218L20 40Z" fill="#FFFEFC"/>
</g>
</svg>
