<svg width="147" height="147" viewBox="0 0 147 147" fill="none" xmlns="http://www.w3.org/2000/svg">
<g id="Vector">
<path d="M41.5502 13.6693C45.5468 0.522797 61.9477 -3.8718 71.9821 5.51514C77.7817 10.9406 86.3909 12.074 93.3971 8.3345C105.519 1.8645 120.224 10.3542 120.682 24.0871C120.946 32.0245 126.232 38.9135 133.831 41.2234C146.977 45.22 151.372 61.6209 141.985 71.6553C136.559 77.4549 135.426 86.0641 139.166 93.0703C145.636 105.192 137.146 119.897 123.413 120.355C115.476 120.619 108.586 125.906 106.277 133.504C102.28 146.65 85.8791 151.045 75.8447 141.658C70.0451 136.233 61.4359 135.099 54.4297 138.839C42.3077 145.309 27.6031 136.819 27.1453 123.086C26.8807 115.149 21.5945 108.26 13.9961 105.95C0.849579 101.953 -3.54502 85.5523 5.84192 75.5179C11.2673 69.7183 12.4008 61.1091 8.66128 54.1029C2.19128 41.9809 10.681 27.2763 24.414 26.8185C32.3513 26.5539 39.2403 21.2677 41.5502 13.6693Z" fill="#81B0B2"/>
<path d="M46.2968 22.4572C49.7072 11.2388 63.7026 7.48877 72.2653 15.499C77.2144 20.1287 84.5609 21.0958 90.5395 17.9048C100.884 12.3837 113.432 19.6283 113.822 31.3471C114.048 38.1202 118.559 43.9989 125.043 45.9701C136.261 49.3805 140.011 63.3759 132.001 71.9386C127.371 76.8876 126.404 84.2341 129.595 90.2127C135.116 100.557 127.872 113.105 116.153 113.495C109.38 113.721 103.501 118.232 101.53 124.716C98.1196 135.934 84.1242 139.684 75.5615 131.674C70.6124 127.045 63.2659 126.077 57.2873 129.268C46.9432 134.789 34.3953 127.545 34.0046 115.826C33.7788 109.053 29.2679 103.174 22.784 101.203C11.5656 97.7928 7.81555 83.7974 15.8257 75.2347C20.4554 70.2857 21.4226 62.9391 18.2316 56.9605C12.7105 46.6164 19.9551 34.0685 31.6739 33.6778C38.4471 33.452 44.3257 28.9411 46.2968 22.4572Z" fill="#FFFEFC"/>
<path d="M111.16 88.9335C111.164 90.2728 110.793 91.5865 110.089 92.7256C109.385 93.8648 108.376 94.7839 107.176 95.3789L107.047 95.4374L95.6709 100.283C95.5584 100.333 95.4417 100.372 95.3222 100.4L76.5722 105.088C76.3865 105.136 76.1956 105.16 76.0039 105.161H45.5351C44.2919 105.161 43.0996 104.667 42.2206 103.788C41.3415 102.909 40.8476 101.717 40.8476 100.474V88.7548C40.8476 87.5116 41.3415 86.3193 42.2206 85.4403C43.0996 84.5612 44.2919 84.0673 45.5351 84.0673H53.9404L60.5673 77.4374C61.4363 76.5646 62.4696 75.8726 63.6076 75.4014C64.7455 74.9302 65.9656 74.6892 67.1972 74.6923H81.8632C83.1012 74.6922 84.3232 74.9723 85.4376 75.5116C86.5519 76.0509 87.5298 76.8354 88.2978 77.8064C89.0659 78.7773 89.6042 79.9096 89.8724 81.1182C90.1406 82.3268 90.1318 83.5804 89.8466 84.7851L102.104 81.9667C103.172 81.6842 104.289 81.6504 105.372 81.868C106.454 82.0856 107.472 82.5488 108.346 83.2219C109.221 83.8951 109.93 84.7601 110.418 85.7503C110.906 86.7406 111.16 87.8296 111.16 88.9335ZM106.473 88.9335C106.472 88.546 106.383 88.1638 106.211 87.8165C106.039 87.4692 105.789 87.1663 105.481 86.9311C105.173 86.6959 104.815 86.5348 104.435 86.4604C104.054 86.386 103.662 86.4002 103.288 86.5019L103.197 86.5253L83.5683 91.04C83.3961 91.0784 83.2203 91.0981 83.0439 91.0986H73.6601C73.0385 91.0986 72.4424 90.8517 72.0028 90.4121C71.5633 89.9726 71.3164 89.3764 71.3164 88.7548C71.3164 88.1332 71.5633 87.5371 72.0028 87.0975C72.4424 86.658 73.0385 86.4111 73.6601 86.4111H81.8632C82.7956 86.4111 83.6899 86.0407 84.3492 85.3814C85.0085 84.7221 85.3789 83.8279 85.3789 82.8955C85.3789 81.9631 85.0085 81.0688 84.3492 80.4095C83.6899 79.7502 82.7956 79.3798 81.8632 79.3798H67.1972C66.5814 79.3779 65.9714 79.4983 65.4025 79.7342C64.8337 79.9701 64.3174 80.3167 63.8837 80.7539L57.2539 87.3808V100.474H75.7109L94.0009 95.9003L105.134 91.1601C105.539 90.9466 105.878 90.6262 106.114 90.2337C106.35 89.8412 106.474 89.3916 106.473 88.9335Z" fill="#81B0B2"/>
<path fill-rule="evenodd" clip-rule="evenodd" d="M74.7878 36.8463L73.9068 38.0603L73.0258 36.8463C73.5513 36.465 74.2624 36.465 74.7878 36.8463ZM73.9068 39.9702C73.6803 40.1576 73.417 40.3809 73.1253 40.638C72.1028 41.539 70.7406 42.8457 69.3818 44.4658C66.6316 47.7447 64.0581 52.1123 64.0581 56.8857C64.0581 59.6257 65.1078 62.2433 66.9614 64.1656C68.8134 66.0844 71.3136 67.1524 73.9068 67.1524C76.5015 67.1524 79.0002 66.0845 80.8522 64.1656C82.7058 62.2433 83.7555 59.6257 83.7555 56.8857C83.7555 52.1123 81.182 47.7447 78.4319 44.4658C77.0731 42.8457 75.7108 41.539 74.6883 40.638C74.3966 40.3809 74.1334 40.1576 73.9068 39.9702ZM73.025 36.8469C73.025 36.8469 73.0258 36.8463 73.9068 38.0603C74.7878 36.8463 74.7887 36.8469 74.7887 36.8469L74.7898 36.8477L74.7928 36.8499L74.8019 36.8566L74.8322 36.8789C74.8577 36.8978 74.8937 36.9247 74.9395 36.9593C75.031 37.0286 75.1617 37.129 75.326 37.2592C75.6545 37.5195 76.1181 37.8993 76.6718 38.3872C77.7772 39.3613 79.2521 40.7754 80.7304 42.5379C83.6546 46.0243 86.7555 51.0694 86.7555 56.8857C86.7555 60.3866 85.4155 63.7553 83.0117 66.248C80.6064 68.7405 77.3332 70.1524 73.9068 70.1524C70.4822 70.1524 67.2077 68.7409 64.8023 66.2484C62.3986 63.7557 61.0581 60.3866 61.0581 56.8857C61.0581 51.0694 64.159 46.0243 67.0832 42.5379C68.5616 40.7754 70.0365 39.3613 71.1419 38.3872C71.6956 37.8993 72.1592 37.5195 72.4876 37.2592C72.6519 37.129 72.7827 37.0286 72.8742 36.9593C72.9199 36.9247 72.9559 36.8978 72.9814 36.8789L73.0117 36.8566L73.0208 36.8499L73.025 36.8469ZM80.3889 54.8914C81.2173 54.8898 81.8902 55.5601 81.8918 56.3885C81.8963 58.7432 80.9756 61.0048 79.3286 62.6928L79.3274 62.694C78.4049 63.6373 77.2797 64.3599 76.0369 64.8081C75.2576 65.0891 74.3981 64.6852 74.117 63.9059C73.836 63.1266 74.2399 62.267 75.0192 61.986C75.8374 61.6909 76.5767 61.2158 77.1819 60.5971C78.2825 59.4689 78.8948 57.9609 78.8918 56.3943C78.8902 55.5659 79.5605 54.893 80.3889 54.8914Z" fill="#81B0B2"/>
</g>
</svg>
