<svg width="116" height="116" viewBox="0 0 116 116" fill="none" xmlns="http://www.w3.org/2000/svg">
<g id="Vector">
<path d="M57.6144 57.6144C30.1721 53.2372 4.37723 71.9351 1.90086e-05 99.3775C27.4423 103.755 53.2372 85.0567 57.6144 57.6144Z" fill="#97A675"/>
<path d="M57.6144 57.6144C85.0567 61.9916 103.755 87.7864 99.3774 115.229C71.9351 110.852 53.2372 85.0567 57.6144 57.6144Z" fill="#97A675"/>
<path d="M57.6144 57.6144C30.1721 53.2372 11.4741 27.4423 15.8513 3.26769e-05C43.2936 4.37725 61.9916 30.1721 57.6144 57.6144Z" fill="#97A675"/>
<path d="M57.6144 57.6144C85.0567 61.9916 110.852 43.2936 115.229 15.8513C87.7864 11.4741 61.9916 30.1721 57.6144 57.6144Z" fill="#97A675"/>
</g>
</svg>
