<svg width="143" height="200" viewBox="0 0 143 200" fill="none" xmlns="http://www.w3.org/2000/svg">
<g id="Vector">
<path d="M99.634 99.634C56.7104 111.737 31.7251 156.344 43.8278 199.268C86.7515 187.165 111.737 142.558 99.634 99.634Z" fill="#00738C"/>
<path d="M99.634 99.634C142.558 87.5313 187.165 112.517 199.268 155.44C156.344 167.543 111.737 142.558 99.634 99.634Z" fill="#00738C"/>
<path d="M99.634 99.634C56.7104 111.737 12.1027 86.7515 1.2207e-05 43.8278C42.9236 31.7251 87.5313 56.7104 99.634 99.634Z" fill="#00738C"/>
<path d="M99.634 99.634C142.558 87.5313 167.543 42.9236 155.44 8.78679e-06C112.517 12.1027 87.5313 56.7104 99.634 99.634Z" fill="#00738C"/>
</g>
</svg>
