<svg width="150" height="151" viewBox="0 0 150 151" fill="none" xmlns="http://www.w3.org/2000/svg">
<g id="Vector">
<path d="M17.014 39.7917C13.9019 26.4082 25.9082 14.4019 39.2917 17.514C47.027 19.3128 55.0495 15.9898 59.2473 9.24816C66.5103 -2.41603 83.4897 -2.41607 90.7527 9.24812C94.9505 15.9897 102.973 19.3128 110.708 17.514C124.092 14.4019 136.098 26.4082 132.986 39.7917C131.187 47.527 134.51 55.5495 141.252 59.7473C152.916 67.0103 152.916 83.9897 141.252 91.2527C134.51 95.4505 131.187 103.473 132.986 111.208C136.098 124.592 124.092 136.598 110.708 133.486C102.973 131.687 94.9505 135.01 90.7527 141.752C83.4897 153.416 66.5103 153.416 59.2473 141.752C55.0495 135.01 47.027 131.687 39.2917 133.486C25.9082 136.598 13.9019 124.592 17.014 111.208C18.8128 103.473 15.4897 95.4505 8.74813 91.2527C-2.91605 83.9897 -2.91604 67.0103 8.74815 59.7473C15.4898 55.5495 18.8128 47.527 17.014 39.7917Z" fill="#97A675"/>
<path d="M26.308 46.0103C23.7146 34.8573 33.7198 24.8521 44.8727 27.4456C51.3188 28.9445 58.0042 26.1753 61.5024 20.5573C67.5549 10.8372 81.7044 10.8371 87.7569 20.5573C91.2551 26.1753 97.9405 28.9445 104.387 27.4455C115.54 24.8521 125.545 34.8573 122.951 46.0103C121.452 52.4564 124.222 59.1418 129.84 62.6399C139.56 68.6924 139.56 82.8419 129.84 88.8944C124.222 92.3926 121.452 99.078 122.951 105.524C125.545 116.677 115.54 126.682 104.387 124.089C97.9405 122.59 91.2551 125.359 87.7569 130.977C81.7044 140.697 67.5549 140.697 61.5024 130.977C58.0042 125.359 51.3188 122.59 44.8727 124.089C33.7198 126.682 23.7146 116.677 26.308 105.524C27.8069 99.078 25.0378 92.3926 19.4198 88.8944C9.69961 82.8419 9.69962 68.6924 19.4198 62.64C25.0378 59.1418 27.8069 52.4564 26.308 46.0103Z" fill="#FFFEFC"/>
<path d="M86.218 59.0937C78.8117 59.0937 72.7367 64.8523 72.2071 72.1249C69.6303 69.774 66.2685 68.4701 62.7805 68.4687H53.4055V77.8437C53.4055 85.5992 59.7149 91.9062 67.468 91.9062H72.1555V98.9374C72.1555 100.232 73.2048 101.281 74.4992 101.281C75.7937 101.281 76.843 100.232 76.843 98.9374V82.5312H81.5305C89.2836 82.5312 95.593 76.2242 95.593 68.4687V59.0937H86.218ZM67.468 87.2187C62.2977 87.2187 58.093 83.014 58.093 77.8437V73.1562H62.7805C67.9508 73.1562 72.1555 77.3609 72.1555 82.5312V83.9046L68.4383 80.1874C67.5232 79.2723 66.0394 79.2723 65.1242 80.1874C64.2091 81.1026 64.2091 82.5863 65.1242 83.5015L68.8414 87.2187H67.468ZM90.9055 68.4687C90.9055 73.639 86.7008 77.8437 81.5305 77.8437H80.1571L83.8742 74.1265C84.7894 73.2113 84.7894 71.7276 83.8742 70.8124C82.9591 69.8973 81.4753 69.8973 80.5602 70.8124L76.843 74.5296V73.1562C76.843 67.9859 81.0477 63.7812 86.218 63.7812H90.9055V68.4687Z" fill="#97A675"/>
<path d="M109.655 75.4999C109.655 56.1148 93.8844 40.3437 74.4992 40.3437C70.0688 40.3324 65.6841 41.166 61.5781 42.7921C60.3743 43.2689 59.8802 44.6758 60.4369 45.8448C60.9935 47.0136 62.3893 47.5008 63.5979 47.0369C67.0705 45.7039 70.7661 45.0214 74.4992 45.0312C91.2992 45.0312 104.968 58.6999 104.968 75.4999C104.968 82.707 102.491 89.5132 97.9367 94.9718V91.9062C97.9367 90.6118 96.8874 89.5624 95.593 89.5624C94.2986 89.5624 93.2492 90.6118 93.2492 91.9062V98.9374C93.2492 101.526 95.3479 103.625 97.9367 103.625H104.968C106.262 103.625 107.312 102.576 107.312 101.281C107.312 99.9868 106.262 98.9374 104.968 98.9374H100.651C106.462 92.5161 109.672 84.1602 109.655 75.4999Z" fill="#97A675"/>
<path d="M39.9993 75.125C39.9993 94.5102 55.7704 110.281 75.1556 110.281C79.586 110.293 83.9707 109.459 88.0767 107.833C89.2805 107.356 89.7746 105.949 89.2179 104.78C88.6613 103.611 87.2655 103.124 86.057 103.588C82.5843 104.921 78.8887 105.604 75.1556 105.594C58.3556 105.594 44.6868 91.925 44.6868 75.125C44.6868 67.918 47.1642 61.1117 51.7181 55.6531V58.7188C51.7181 60.0132 52.7674 61.0625 54.0618 61.0625C55.3562 61.0625 56.4056 60.0132 56.4056 58.7188V51.6875C56.4056 49.0987 54.3069 47 51.7181 47H44.6868C43.3924 47 42.3431 48.0493 42.3431 49.3438C42.3431 50.6382 43.3924 51.6875 44.6868 51.6875H49.004C43.193 58.1089 39.9827 66.4647 39.9993 75.125Z" fill="#97A675"/>
</g>
</svg>
